{"title":"Agora.2009.Cam.Xvid-Ta","uid":5343357,"size":768833072,"categoryP":"video","categoryS":"movies","magnet":"?xt=urn:btih:767e4d63d6ef8d32e9550b0beeffcb3df30e838c&amp;dn=Agora.2009.Cam.Xvid-Ta&amp;tr=udp%3A%2F%2Ftracker.openbittorrent.com%3A80&amp;tr=udp%3A%2F%2Fopen.demonii.com%3A1337&amp;tr=udp%3A%2F%2Ftracker.coppersurfer.tk%3A6969&amp;tr=udp%3A%2F%2Fexodus.desync.com%3A6969","seeders":0,"leechers":1,"uploader":"IwannaFan2","files":-1,"time":1265556338,"description":" &lt;a href=&quot;http://www.imdb.com/title/tt1186830/&quot; rel=&quot;nofollow&quot; target=&quot;_NEW&quot;&gt;http://www.imdb.com/title/tt1186830/&lt;/a&gt;\nSource                           : Agora.2009.Cam.Xvid.NoGrp.avi\nGeneral\nComplete name                    : Agora.2009.Cam.Xvid.TA.avi\nFormat                           : AVI\nFormat/Info                      : Audio Video Interleave\nFile size                        : 733 MiB\nDuration                         : 2h 17mn\nOverall bit rate                 : 743 Kbps\nWriting library                  : VirtualDub build 32661/release\n\nVideo\nID                               : 0\nFormat                           : MPEG-4 Visual\nFormat profile                   : AdvancedSimple@L5\nFormat settings, BVOP            : Yes\nFormat settings, QPel            : No\nFormat settings, GMC             : No warppoints\nFormat settings, Matrix          : Custom\nMuxing mode                      : Packed bitstream\nCodec ID                         : XVID\nCodec ID/Hint                    : XviD\nDuration                         : 2h 17mn\nBit rate                         : 621 Kbps\nWidth                            : 640 pixels\nHeight                           : 360 pixels\nDisplay aspect ratio             : 16:9\nFrame rate                       : 25.000 fps\nResolution                       : 24 bits\nColorimetry                      : 4:2:0\nScan type                        : Progressive\nBits/(Pixel*Frame)               : 0.108\nStream size                      : 613 MiB (84%)\nWriting library                  : XviD 1.2.1 (UTC 2008-12-04)\n\nAudio\nID                               : 1\nFormat                           : MPEG Audio\nFormat version                   : Version 1\nFormat profile                   : Layer 3\nCodec ID                         : 55\nCodec ID/Hint                    : MP3\nDuration                         : 2h 17mn\nBit rate mode                    : Constant\nBit rate                         : 112 Kbps\nChannel(s)                       : 2 channels\nSampling rate                    : 44.1 KHz\nResolution                       : 16 bits\nVideo delay                      : 26ms\nStream size                      : 111 MiB (15%)\nAlignment                        : Split accross interleaves\nInterleave, duration             : 40 ms (1.00 video frame)\nInterleave, preload duration     : 500 ms","torrent":{"xt":"urn:btih:767e4d63d6ef8d32e9550b0beeffcb3df30e838c","amp;dn":"Agora.2009.Cam.Xvid-Ta","amp;tr":["udp%3A%2F%2Ftracker.openbittorrent.com%3A80","udp%3A%2F%2Fopen.demonii.com%3A1337","udp%3A%2F%2Ftracker.coppersurfer.tk%3A6969","udp%3A%2F%2Fexodus.desync.com%3A6969"],"infoHash":"767e4d63d6ef8d32e9550b0beeffcb3df30e838c","infoHashBuffer":{"type":"Buffer","data":[118,126,77,99,214,239,141,50,233,85,11,11,238,255,203,61,243,14,131,140]},"announce":[],"urlList":[]}}